<?xml version="1.0" encoding="utf-8"?>
<!-- Generator: Adobe Illustrator 19.1.0, SVG Export Plug-In . SVG Version: 6.00 Build 0)  -->
<svg version="1.1"
	 id="svg2" xmlns:dc="http://purl.org/dc/elements/1.1/" xmlns:cc="http://creativecommons.org/ns#" xmlns:rdf="http://www.w3.org/1999/02/22-rdf-syntax-ns#"
	 xmlns="http://www.w3.org/2000/svg" xmlns:xlink="http://www.w3.org/1999/xlink" x="0px" y="0px"
	 viewBox="-700.7 1169.8 199.9 42.2" style="enable-background:new -700.7 1169.8 199.9 42.2;" xml:space="preserve">
<style type="text/css">
	.st0{fill:rgb(187, 197, 234);}
</style>
<g>
	<path id="path4938" class="st0" d="M-696.5,1181.9v-1.1c0-0.4,0-1,0-1.7c0-0.8,0-1.3,0-1.7c0-1.7-0.2-3-0.6-4
		c-0.1,0.1-0.1,0.4,0,0.8c0,0.3,0.1,0.6,0.1,0.9C-696.9,1176.8-696.8,1179.1-696.5,1181.9L-696.5,1181.9z M-679.6,1204.5
		c0,0.4,0,1-0.2,1.7c-0.2,0.8-0.5,2-0.8,3.6c-0.2,1.5-0.6,2.3-1,2.4c-0.5,0-1.1,0-1.7,0c-0.8-0.1-1.5-0.1-2.1-0.1
		c-1.4,0-2.5,0-3.4-0.1c-0.8,0-1.2,0-1,0c-0.6,0-1.4,0-2.3,0.1c-0.1,0-0.2,0-0.3-0.1c-0.2-0.1-1.6-0.1-3.9-0.1h-3.6
		c0,0-0.2,0-0.4-0.1c-0.2,0-0.3-0.1-0.5-0.1c0.1-0.2,0.1-0.6,0.2-1c0.3-0.1,0.7-0.2,1.2-0.3c0.5-0.2,0.9-0.7,1.2-1.3
		c0.2-0.2,0.3-0.4,0.5-0.7c0-0.2,0-0.5-0.1-0.9c-0.1-0.4-0.1-0.7-0.1-0.9c0.1,0,0.5-0.2,1-0.6c0,0-0.1-0.2-0.3-0.6
		c0,0-0.1,0-0.3-0.1c-0.3-0.2-0.2-0.6,0.2-1.1c0.2-0.3,0.4-0.7,0.4-1.2c0-0.3-0.1-0.7-0.2-1.2c-0.1-0.5-0.2-0.8-0.2-1
		c0-0.1,0-0.2,0.1-0.3c0.1-0.2,0.1-0.3,0.1-0.3v-1.8c0,0,0-0.2,0.1-0.5c0.1-0.3,0.1-0.5,0.1-0.6c0-0.1-0.1-0.3-0.2-0.8
		c0,0,0-0.2,0-0.8c0-0.1,0-0.3,0-0.5c0-0.3-0.1-0.4-0.1-0.5c0-0.2,0-0.5,0.1-1.1c0.1-0.6,0.1-0.9,0.2-1.1c0-0.2,0-0.6-0.1-1
		c-0.1-0.5-0.1-0.7-0.1-0.7v-1.9c0-0.1,0.1-0.2,0.2-0.3l-0.2-2.1c0-0.6,0-1,0.1-1.3c0.1-0.2,0.1-0.3,0.1-0.5c0-0.4-0.1-0.8-0.2-1.3
		c-0.1-0.4-0.2-0.8-0.4-1.2c0,0,0-0.4,0-1.1c0,0,0-1.4-0.1-4.3c0-0.2-0.1-0.5-0.2-1c0,0,0-0.3,0.1-0.8c0-0.1,0-0.2-0.1-0.5
		c-0.1-0.2-0.1-0.4-0.1-0.4c0,0.1,0.1-0.3,0.2-1.1c-0.2-0.4-0.6-0.9-1.2-1.6c-0.2-0.1-0.4-0.2-0.7-0.2c-0.4,0-0.7-0.1-0.8-0.1
		c-0.1-0.1-0.1-0.3,0-0.5c0.1-0.2,0.2-0.4,0.3-0.5c0.5,0,0.8-0.1,0.8-0.1c1.1,0.1,2.8,0.2,5,0.3c0.6,0,0.8,0,0.7,0
		c2.1-0.2,3.1-0.3,3-0.3h2.8c0,0.3,0,0.6-0.2,1c-0.5,0.1-1.1,0.2-2.1,0.4c-0.9,0.1-1.5,0.8-1.9,1.9c-0.1,0.3-0.2,0.9-0.4,1.8
		c-0.2,1.3-0.2,2.2-0.2,2.7v19.7c0,0.1,0,0.2,0.1,0.4c0,0.2,0.1,0.4,0.1,0.5c0,0.8,0,1.5,0,2.1c-0.1,0.9,0,1.4,0.3,1.5
		c0,0,0,0.4-0.1,1.2c0,0-0.1,0-0.1,0.1c0.4,1.7,0.5,2.6,0.5,2.9c-0.2,0.3-0.4,0.7-0.6,1.3c0,0.2,0.2,0.7,0.5,1.6
		c0.5,0,1.3,0.1,2.3,0.2c0.2,0,0.5,0.2,0.8,0.5c0.1-0.1,0.2-0.2,0.4-0.5c0.3,0,0.8,0,1.4,0.1c0.6,0.1,1.1,0.1,1.4,0.1
		c0.1,0,0.2-0.1,0.4-0.2c0.2-0.1,0.3-0.2,0.4-0.2c0.4-0.1,0.9-0.2,1.5-0.4c0.1-0.1,0.4-0.3,0.7-0.8l0.7-1.1c0.8-0.9,1.1-1.8,1.1-2.5
		C-680.4,1204.2-680.1,1204.3-679.6,1204.5"/>
	<path id="path4940" class="st0" d="M-669.5,1189.9c-0.1-1.6-0.4-3-0.9-4.2c-0.6-1.7-1.4-3-2.2-3.9c-1.2-1.3-2.5-2.1-3.9-2.3
		c-1.4-0.2-2.3-0.3-2.8-0.2c-1,0.1-1.8,0.3-2.5,0.7c-0.1,0-0.6,0.4-1.7,1c-0.1,0.1-0.2,0.3-0.4,0.4c-0.1,0-0.2,0.1-0.3,0.1
		c-0.2,0.3-0.5,0.8-0.9,1.3c-0.1,0.2-0.1,0.4-0.3,0.6c-0.2,0.3-0.4,0.6-0.6,1.1c-0.1,0.5-0.3,1.1-0.5,2c0,0.3,0,0.9,0,1.6
		c0,0,0,0.1-0.1,0.2c0,0.1-0.1,0.2-0.1,0.2c0.2,0.8,0.4,1.9,0.7,3.3c0,0.1,0,0.2-0.1,0.3c0.1,0.2,0.2,0.4,0.4,0.7
		c0,0.2,0,0.4,0.1,0.6c0.5,1,0.8,1.6,0.8,1.6c0.4,0.6,0.9,1.2,1.5,1.8c0,0,0.1,0.3,0.2,0.8c0.1,0,0.3,0,0.6,0.1
		c0.6,0.6,1.1,0.9,1.4,1.1c0.4,0.3,1.2,0.4,2.4,0.5c0.9,0.1,1.8,0.1,2.5,0c0.2-0.1,0.4-0.1,0.8-0.2c0.4-0.1,1-0.3,1.7-0.6
		c0.2-0.2,0.4-0.4,0.7-0.6c0.5-0.3,0.9-0.7,1.4-1.3c0.4-0.6,0.7-1.1,0.8-1.5c0.1-0.1,0.3-0.4,0.4-0.6c0-0.2,0.1-0.5,0.1-0.8
		c0.1-0.1,0.2-0.2,0.2-0.4c0-0.3,0.1-0.9,0.2-1.8C-669.5,1190.7-669.4,1190.2-669.5,1189.9L-669.5,1189.9z M-665.4,1189.5
		c0,0.7,0,1.2-0.1,1.6c-0.1,0.3-0.2,0.7-0.4,1.3c0,0.6-0.2,1.2-0.4,1.9c-0.2,0.3-0.5,0.7-0.9,1.2c-0.1,0.4-0.4,0.9-0.8,1.6
		c-0.4,0.4-0.9,0.9-1.6,1.6c-0.1,0-0.2,0.1-0.4,0.2c-0.2,0.1-0.4,0.4-0.8,0.7c-2,1.1-3.9,1.7-5.8,1.8h-2.4c0,0,0,0-0.2-0.1
		c-1.3,0-2.3-0.2-3-0.6c-0.2,0-0.4-0.1-0.7-0.2c-0.5-0.2-1.2-0.5-2.2-1c-1.2-0.8-2.3-1.8-3.3-3.2c-0.6-0.8-1.1-1.8-1.5-3
		c-0.4-1.1-0.6-2.1-0.7-2.8c-0.1-1.3,0-2.6,0.1-3.8c0.1-0.2,0.2-0.4,0.3-0.7c0.1-0.4,0.2-0.9,0.4-1.6c0.3-0.4,0.6-1.1,1.1-1.9
		c0.1-0.1,0.1-0.3,0.1-0.5c0.1-0.1,0.2,0,0.4,0.1c0.1-0.2,0.1-0.4,0-0.7c0.2-0.1,0.4-0.2,0.7-0.3c0.1-0.3,0.3-0.6,0.7-0.9
		c0.7-0.4,1.8-1,3.3-1.7c0.4-0.2,0.9-0.4,1.5-0.5c1.5-0.3,2.5-0.5,3.1-0.5h1.4c1.1,0,2.1,0.1,2.9,0.3c0.4,0.1,1.4,0.5,2.8,1
		c0.3,0.2,0.8,0.5,1.5,0.9c1,0.6,1.8,1.4,2.6,2.5c0.7,1,1.2,1.8,1.4,2.6c0.1,0.1,0.2,0.3,0.4,0.6c0.3,0.7,0.4,1.8,0.5,3.3
		c0,0,0,0.2,0.1,0.3C-665.4,1189.2-665.4,1189.4-665.4,1189.5"/>
	<path id="path4942" class="st0" d="M-653,1184.4c0-0.4,0-0.7-0.1-0.8c-0.6-1.6-1.1-2.7-1.6-3.1c-0.6-0.6-1.3-1-2-1.2
		c-0.5-0.1-1.3-0.1-2.3-0.1c-0.1,0-0.3,0.1-0.5,0.2c-0.2,2.1-0.3,3.8-0.4,5.1c0.1,0.1,0.1,0.2,0.2,0.4c0,0.2-0.1,0.9-0.2,2.1
		c-0.1,0.8-0.1,1.6,0.1,2.4c0,0,0.1,0.1,0.1,0.2h1.8c0.2,0.1,0.4,0.1,0.7,0.1c0.7,0,1.4-0.2,2.1-0.7c0.7-0.5,1.1-0.8,1.2-1.1
		C-653.3,1186.8-653,1185.7-653,1184.4L-653,1184.4z M-642.9,1200.2c-0.1,0.1-0.3,0.3-0.5,0.5c-0.6,0.3-1,0.5-1.2,0.5h-2.2
		c-0.8,0-1.3,0-1.7-0.1c-0.3-0.1-0.7-0.2-1.2-0.4c-0.5-0.1-1.3-0.9-2.5-2.2c-0.1-0.1-0.6-0.9-1.4-2.4c-0.8-1.3-1.4-2.5-1.8-3.4
		c-0.1-0.3-0.3-0.8-0.6-1.3c-0.1-0.1-0.4-0.2-0.9-0.1c-0.3,0-0.6,0.1-0.9,0.1c-0.4,0-1,0-1.8,0c-0.1,0-0.2,0.1-0.3,0.2
		c0,0.5,0.1,2,0.2,4.5c0,0.5,0.1,1.1,0.3,1.9c0,0.2,0.1,0.5,0.2,1c0.3,0.4,0.7,0.8,1.3,1c0.5,0.1,0.9,0.3,1.4,0.4c0,0.1,0,0.3,0,0.5
		c-0.4,0.1-0.7,0.2-1.1,0.2h-1.9c0,0-0.2,0-0.5-0.1c-0.3-0.1-0.5-0.1-0.7-0.1c-0.4,0-1.4,0.1-3,0.2h-1.9c-0.2,0-0.4-0.1-0.7-0.2
		c0,0,0-0.1,0-0.2c0-0.1,0-0.2,0-0.2c0.6-0.2,1-0.3,1.2-0.4c0.5-0.2,0.8-0.6,1.1-1.1c0.1-0.2,0.2-0.8,0.3-1.7c0-0.1,0-0.5,0.1-1.1
		c0.1-0.6,0.1-1,0.1-1.3c0-1.7,0-2.6,0-2.7c0-0.1,0.1-0.4,0.3-0.7c-0.1-0.1-0.2-0.3-0.3-0.5c-0.1-0.2-0.1-0.5-0.1-0.9v-1.9
		c0,0,0-0.2-0.1-0.6c0,0.1,0.1-0.7,0.2-2.4c0,0,0-0.1-0.1-0.1c-0.1-0.5-0.1-1.1,0-1.9c0-0.2,0-1-0.2-2.2c0-0.4-0.1-0.9-0.3-1.6
		c-0.3-0.3-0.6-0.5-1-0.6c-0.4-0.1-0.7-0.2-1.1-0.2c0-0.7,0-0.8-0.1-0.4c0-0.2,0.1-0.3,0.4-0.3c0.5,0,1.3-0.1,2.4-0.2
		c1-0.1,1.5-0.1,1.6-0.1h2.4c0.4,0,0.9,0,1.4-0.1c0.5-0.1,0.9-0.1,1.2-0.1c0.4,0,0.9,0,1.6,0.1c0.4,0.1,1,0.2,1.7,0.4
		c0.1,0.1,0.2,0.1,0.4,0.2c1.2,0.2,2.2,0.7,3.1,1.7c0.5,0.5,1,1.5,1.3,2.8c0,0.2,0,0.5,0.1,0.9c0,0.3,0,0.8-0.1,1.4
		c-0.2,1.3-0.5,2.3-0.9,3c-0.4,0.6-1.2,1.5-2.4,2.6c0,0.3,0,0.5,0.1,0.7c0.8,1.5,1.6,3,2.3,4.5c0.9,1.6,2.1,3,3.4,4.1
		c0.1,0.1,0.6,0.3,1.4,0.5c0.5,0.1,0.9,0.2,1.2,0.1c0.5-0.1,0.8-0.1,1.1-0.1C-642.9,1199.9-642.9,1200-642.9,1200.2"/>
	<path id="path4944" class="st0" d="M-624.7,1187.6c-1.5-0.1-2.6-0.1-3.2-0.1c-0.1,0-0.1-0.3-0.1-0.6c-0.2-0.5-0.6-1.3-1.1-2.3
		c-0.7-1.3-1.4-2.4-2.2-3.2c-0.8-0.8-2.1-1.3-3.8-1.7c-0.8-0.1-1.2-0.2-1.1-0.2h-1.9c0,0-0.4,0.1-1,0.2c-0.6,0.1-1,0.2-1.3,0.2
		c-0.2,0.9-0.2,1.8-0.2,2.8v2.9v7.3c0,0,0,0.2-0.1,0.6c0,0.4,0,0.7,0,0.9c0,0.7,0.1,1,0.1,0.9c0,0.5,0,0.9,0,1.2
		c0,0.1,0,0.2,0.1,0.5c0.1,0.2,0.1,0.4,0.1,0.5c0,0-0.2,0.1-0.6,0.2c-0.3,0.1-0.5,0.3-0.5,0.5c0.2,0.2,0.5,0.3,0.8,0.3
		c0.2,0,0.5,0,0.7,0c2.5,0.3,3.9,0.4,4.3,0.4c1.2,0,2.2-0.2,3.1-0.5c0.8-0.3,1.4-0.7,1.9-1.3c1.1-1.1,1.8-2.5,2.2-4.1
		c0.2-0.8,0.3-2.1,0.4-3.9c0-0.1-0.1-0.4-0.3-0.6c0-0.2,0-0.3,0.1-0.3c0.2-0.1,0.6-0.1,1.1-0.2c0.5,0,1.2-0.1,2.2-0.2
		C-624.7,1187.8-624.7,1187.7-624.7,1187.6L-624.7,1187.6z M-623.8,1187.7c0.1,0.6,0,1.7-0.2,3.3c-0.1,0.5-0.3,1.2-0.5,2.2
		c-0.5,2.1-1.4,3.8-2.8,5c-0.5,0.5-1.2,1-2,1.4c-1,0.6-1.7,0.9-2.3,0.9c-0.1,0-0.2,0.1-0.4,0.2c-1.8,0.3-2.7,0.4-2.6,0.4h-12
		c-0.1-0.4-0.1-0.7,0.1-0.8c0.5-0.2,0.9-0.3,1.1-0.3c0.1-0.1,0.2-0.2,0.3-0.4c0.6-0.6,0.9-1.3,0.9-2c0,0,0-0.2-0.1-0.5
		c0-0.1,0.1-0.3,0.1-0.5c0-0.1-0.1-0.3-0.2-0.5c0-0.1,0-0.2,0.1-0.4c0.1-0.2,0.1-0.4,0.1-0.5c0-0.5,0-1.2,0-2.2v-2.1
		c0-1.4,0-3.5,0-6.2c0,0,0-0.1-0.1-0.2c-0.1-0.1-0.1-0.2-0.1-0.3c0-0.2,0-0.5,0.1-0.9c0.1-0.4,0.1-0.7,0.1-0.9c0,0,0-0.1-0.1-0.3
		c-0.1-0.1-0.1-0.2-0.1-0.3c0-0.2,0-0.6-0.1-1.1c-0.2-0.8-0.5-1.4-0.9-1.6c-0.3-0.2-0.9-0.3-1.8-0.4c0-0.1,0-0.2,0-0.5
		c0.5-0.3,1.1-0.3,1.6-0.2c0.2,0.2,0.3,0.2,0.4,0.2c0.1,0,0.2-0.1,0.3-0.2c0.4,0,0.8,0,1.2,0c0.4,0,0.8,0.2,1,0.6c0,0,0.1,0,0.1,0
		c0.1-0.2,0.3-0.4,0.6-0.7c0.3,0,0.7,0.1,1.2,0.2c0,0,0.1,0,0.2-0.1c0.1-0.1,0.2-0.1,0.2-0.2c0.4-0.1,1-0.2,1.7-0.2h4.7
		c2,0.5,3.5,0.9,4.3,1.2c1.6,0.7,2.9,1.8,3.9,3.2c0.2,0.3,0.5,0.7,0.9,1.3C-624.5,1184.3-624.1,1185.8-623.8,1187.7"/>
	<path id="path4946" class="st0" d="M-610.7,1184.5c0-0.6-0.2-1.1-0.3-1.6c-0.2-0.6-0.5-1.1-0.8-1.5c-0.5-0.5-1-0.8-1.5-0.9
		c-0.5-0.1-0.9-0.1-1.1-0.1c-0.4,0-0.7,0.1-1,0.2c0,0-0.2,0.1-0.6,0.4c0,0-0.1,0.1-0.1,0.2c0,0-0.1,0-0.1,0
		c-0.1,0.1-0.2,0.3-0.4,0.5c0,0.1,0,0.1-0.1,0.2c-0.1,0.1-0.1,0.2-0.2,0.4c0,0.2-0.1,0.4-0.2,0.8c0,0.1,0,0.3,0,0.6c0,0,0,0,0,0.1
		c0,0,0,0.1,0,0.1c0.1,0.3,0.2,0.7,0.3,1.3c0,0,0,0.1,0,0.1c0,0.1,0.1,0.2,0.1,0.3c0,0.1,0,0.1,0,0.2c0.2,0.4,0.3,0.6,0.3,0.6
		c0.1,0.2,0.3,0.5,0.6,0.7c0,0,0,0.1,0.1,0.3c0,0,0.1,0,0.2,0c0.2,0.2,0.4,0.4,0.5,0.4c0.3,0.2,1,0.3,1.9,0.2c0.1,0,0.2-0.1,0.3-0.1
		c0.2,0,0.4-0.1,0.7-0.2c0.1-0.1,0.2-0.1,0.3-0.2c0.5-0.3,0.7-0.6,0.8-1.1c0-0.1,0.1-0.1,0.2-0.2c0-0.1,0-0.2,0-0.3
		c0,0,0.1-0.1,0.1-0.1c0-0.1,0-0.3,0.1-0.7C-610.7,1184.8-610.7,1184.6-610.7,1184.5L-610.7,1184.5z M-609.1,1184.3
		c0,0.3,0,0.5,0,0.6c0,0.1-0.1,0.3-0.1,0.5c0,0.2-0.1,0.5-0.1,0.7c-0.1,0.1-0.2,0.2-0.3,0.5c0,0.1-0.1,0.3-0.3,0.6
		c-0.1,0.1-0.3,0.3-0.6,0.6c0,0-0.1,0-0.2,0.1c-0.1,0.1-0.2,0.1-0.3,0.2c-0.8,0.4-1.5,0.6-2.2,0.7h-0.9c0,0,0,0-0.1,0
		c-0.5,0-0.9-0.1-1.1-0.2c-0.1,0-0.2,0-0.3-0.1c-0.2-0.1-0.5-0.2-0.8-0.4c-0.5-0.3-0.9-0.7-1.3-1.2c-0.2-0.3-0.4-0.7-0.6-1.1
		c-0.2-0.4-0.2-0.8-0.3-1.1c0-0.5,0-1,0.1-1.5c0-0.1,0.1-0.1,0.1-0.3c0-0.1,0.1-0.3,0.1-0.6c0.1-0.2,0.2-0.4,0.4-0.7
		c0-0.1,0-0.1,0-0.2c0,0,0.1,0,0.1,0c0-0.1,0-0.2,0-0.3c0.1,0,0.1-0.1,0.3-0.1c0-0.1,0.1-0.2,0.3-0.4c0.3-0.2,0.7-0.4,1.3-0.7
		c0.1-0.1,0.3-0.1,0.6-0.2c0.6-0.1,1-0.2,1.2-0.2h0.6c0.4,0,0.8,0,1.1,0.1c0.2,0,0.5,0.2,1.1,0.4c0.1,0.1,0.3,0.2,0.6,0.4
		c0.4,0.2,0.7,0.6,1,1c0.3,0.4,0.4,0.7,0.5,1c0,0.1,0.1,0.1,0.1,0.2c0.1,0.3,0.2,0.7,0.2,1.3c0,0,0,0.1,0,0.1
		C-609.1,1184.2-609.1,1184.3-609.1,1184.3"/>
	<path id="path4948" class="st0" d="M-602.2,1180c0,0.2,0,0.8,0,1.9c0,0.1-0.1,0.2-0.2,0.3c0,0-0.1,0-0.2,0c0-0.3-0.1-0.6-0.1-0.7
		c-0.1-0.3-0.2-0.4-0.5-0.5c-0.2-0.1-0.7-0.1-1.4-0.1h-1.2c-0.2,0-0.3,0.2-0.3,0.7c0-0.1,0,0.2,0.1,0.7c0,0.1,0,0.3,0,0.6
		c0,0.3-0.1,0.5-0.1,0.6c0,0.2,0,0.4,0.1,0.5h0.9c0,0,0.1,0,0.2,0c0.1,0,0.2,0,0.3,0h0.9c0.3,0,0.6-0.2,0.9-0.5
		c0-0.1,0.1-0.2,0.1-0.3c0.1,0,0.2-0.1,0.3-0.1c0,0.1,0,0.4,0.1,0.6c0,0.3-0.1,1-0.2,2c0,0.1-0.1,0.2-0.4,0.2c0-0.2-0.1-0.4-0.1-0.6
		c-0.1-0.2-0.2-0.4-0.4-0.5c-0.1,0-0.4,0-0.9,0h-1c0,0-0.2,0-0.3,0c-0.2,0-0.3,0-0.3,0.1c0,0.1,0,0.3,0,0.5c0,0,0,0.2-0.1,0.4
		c-0.1,0.2-0.1,0.3-0.1,0.4c0,0.1,0.1,0.2,0.1,0.3c0,0.1,0,0.2,0,0.4c0,0.2,0,0.3,0,0.4c0,0.4,0.1,0.7,0.4,0.9c0,0,0.4,0.1,1,0.4
		c-0.1,0.1-0.2,0.2-0.4,0.2c0.3,0,0.1,0-0.4,0c-0.4,0-1,0-1.6-0.1c-0.3,0-0.6,0-0.7,0c-0.1,0-0.1,0.1-0.3,0.1c0,0-0.2,0-0.5-0.1
		c0-0.1,0.1-0.2,0.3-0.3c0.2-0.1,0.3-0.2,0.3-0.3c0.2-0.3,0.3-0.6,0.3-0.9v-1.7c0,0,0-0.2,0-0.5c0-0.3,0-0.6,0-0.7c0,0,0-0.1,0-0.2
		c0-0.1,0-0.2,0-0.3c0-0.1,0-0.3-0.1-0.3c0.2-0.2,0.2-0.5,0.2-0.8c0-0.3-0.1-0.7-0.2-1.1c0-0.1,0-0.2,0-0.3c0-0.1,0-0.1,0-0.2
		c-0.1-0.2-0.2-0.4-0.4-0.6c-0.1-0.1-0.2-0.1-0.4-0.1c0-0.1-0.1-0.1,0-0.3c0,0,0.3,0,1,0c1,0,2.6,0,4.8,0
		C-602.8,1179.9-602.5,1179.9-602.2,1180"/>
	<path id="path4950" class="st0" d="M-615.8,1190.2c0,0.2-0.1,0.4-0.1,0.6v1.6c0,0-0.1,0-0.1,0c-0.1,0-0.1,0-0.1,0
		c0,0,0-0.3-0.1-0.8c0-0.3-0.2-0.5-0.4-0.7c-0.1-0.1-0.3-0.1-0.7,0c-0.2,0-0.5,0.1-0.8,0.1c-0.1,0-0.2,0.1-0.2,0.2
		c-0.1,0.3-0.1,0.7,0,1.3c0.1,0.6,0,1.3-0.1,2.3c0,0,0,0.3,0.1,1c0,0.2,0,0.6,0,1c0.1,0.2,0.1,0.6,0.2,1.1c0,0.2,0.2,0.4,0.5,0.4
		c0.2,0.1,0.4,0.1,0.6,0.1c0,0.1-0.1,0.2-0.2,0.3h-4c0,0-0.1,0-0.1-0.1c0,0,0-0.1,0-0.1c0.1,0,0.4-0.1,0.6-0.2
		c0.2-0.1,0.4-0.3,0.5-0.5c0-0.1,0.1-0.3,0.1-0.6c0-0.6,0-1.3,0.1-2v-2.5h0.2c0,0,0,0,0-0.1c-0.1-0.2-0.1-0.4-0.2-0.7
		c0-0.1,0-0.4-0.1-1.1h-1.3c-0.1,0-0.3,0.1-0.5,0.2c-0.2,0.1-0.3,0.3-0.3,0.4c-0.1,0.4-0.2,0.7-0.3,0.8c0,0.1-0.2,0.1-0.3,0.1
		c0,0,0-0.1,0-0.2c0-0.1,0-0.1,0-0.2c0.1-0.2,0.1-0.5,0.2-0.9c0.1-0.5,0.1-0.8,0.1-1l0.2-0.3c-0.1,0,0.3,0,1.3,0
		c0.3,0,0.7,0,1.3,0.1c0.6,0,0.9,0.1,0.9,0.1h1.2c0,0,0.1,0,0.4-0.1c0.3,0,0.6-0.1,0.9-0.1c0.1,0,0.2,0,0.3,0
		C-616,1190-615.9,1190.1-615.8,1190.2"/>
	<path id="path4952" class="st0" d="M-605.5,1190.2c0,0.1,0,0.1-0.1,0.1c-0.2,0.1-0.4,0.1-0.5,0.2c-0.1,0.1-0.2,0.2-0.3,0.3
		c-0.1,0.2-0.2,0.3-0.2,0.4c0,0.4,0,0.6,0,0.5c0,0.1-0.1,0.3-0.1,0.5c0,0.1,0,0.3,0.1,0.7c0,0.1,0,0.3,0,0.6c0,0.3,0,0.6,0,1
		c0,0.4,0,0.6,0,0.6v1c0,1.1,0.1,1.8,0.4,2.2c0,0.1,0.1,0.2,0.3,0.2c0.2,0.1,0.3,0.1,0.4,0.1c0,0-0.1,0.1-0.2,0.2h-3.3
		c0,0,0-0.1,0-0.1c0-0.1,0-0.1,0-0.1c0.1,0,0.2-0.1,0.4-0.2c0.1-0.1,0.3-0.3,0.4-0.6c0.1-0.3,0.2-0.6,0.2-0.7v-1c0-0.1,0-0.3,0-0.6
		c0-0.2,0-0.4,0-0.6c0-0.1,0-0.3-0.1-0.5c-0.2,0.2-0.6,0.3-1,0.4c-0.2,0-0.5,0.1-0.6,0c-0.2-0.1-0.4-0.1-0.4-0.1h-1.8
		c-0.1,0.1-0.2,0.2-0.4,0.3c-0.1,0.1-0.1,0.3-0.1,0.5c0,0.1,0.1,0.2,0.1,0.3c0-0.1,0,0.1,0,0.4c0,0,0,0.4,0,1.1
		c0,0.8,0.3,1.2,0.8,1.3c0,0,0.1,0,0.3,0.1c-0.2,0.2-0.3,0.3-0.5,0.3c-0.1,0-0.1,0-0.2,0c-0.1,0-0.2,0-0.2,0l-2.8,0
		c0-0.1,0.1-0.2,0.3-0.3c0.2-0.1,0.4-0.3,0.6-0.5c0.1-0.2,0.2-0.4,0.2-0.9c0-0.4,0-0.8,0-1.1c0,0,0-0.1-0.1-0.2c0-0.4,0-0.9,0.1-1.6
		c0,0,0-0.1,0.1-0.2c0-0.1,0.1-0.2,0.1-0.3c-0.1-0.1-0.1-0.2-0.2-0.4c0,0.1,0-0.1,0-0.5c0-0.1,0-0.2,0-0.3c0-0.1,0-0.2,0-0.2v-1.1
		c0-0.1-0.1-0.3-0.3-0.5c-0.2-0.2-0.4-0.3-0.6-0.4c0,0,0.1-0.1,0.2-0.2c0.2,0,0.4,0,0.8,0c0.3,0,0.5,0,0.5,0h1.3c0.1,0,0.1,0,0.2,0
		c0.1,0,0.1,0,0.1,0c0.1,0,0.3,0.1,0.5,0.3c-0.2,0.1-0.3,0.2-0.5,0.2c-0.2,0.1-0.3,0.2-0.4,0.4c-0.1,0.2-0.2,0.6-0.2,1.2v1.5
		c0,0,0,0.1,0,0.1c0,0,0,0.1,0,0.1c0.2,0.1,0.4,0.1,0.6,0.1h2.8c0.1,0,0.2,0,0.4,0.1c0,0,0.1,0,0.2,0.1c0.1,0,0.2,0.1,0.2,0.1
		c0,0,0.1,0,0.1,0c0.1-0.2,0.2-0.4,0.2-0.6c0-0.1,0-0.3-0.1-0.5c-0.1-0.2-0.1-0.4-0.1-0.5c0-0.1,0-0.2,0-0.4c0-0.3-0.1-0.4-0.1-0.5
		c0-0.5-0.4-0.9-1-1.2c0.1-0.1,0.2-0.1,0.2-0.1h1c-0.1,0,0.1,0,0.6,0c0.4,0,0.7,0,0.9,0C-606.2,1190.1-605.9,1190.1-605.5,1190.2"/>
	<path id="path4954" class="st0" d="M-597.3,1196.6c0,0.2,0,0.6-0.1,1c-0.1,0.1-0.1,0.3-0.2,0.5c0,0.1-0.1,0.2-0.1,0.4
		c0,0.1-0.1,0.1-0.2,0.3c-0.1,0.1-0.2,0.2-0.3,0.2h-1.8h-0.6h-0.6h-1.1c0,0-0.2,0-0.4-0.1c-0.3,0-0.4-0.1-0.4-0.1h-1.1l-0.1-0.1
		c0.1-0.1,0.3-0.2,0.6-0.4c0.2-0.2,0.4-0.3,0.4-0.6v-2.2c0-0.4,0.1-0.8,0.2-1.4c-0.1-0.2-0.1-0.4,0-0.7c-0.1-0.1-0.1-0.2-0.1-0.3
		c0,0,0.1-0.2,0.2-0.6c0,0,0-0.1-0.1-0.2c-0.1-0.1-0.1-0.2-0.1-0.2c0-0.1,0-0.3,0-0.5c0-0.3,0-0.4,0-0.5c0-0.2,0-0.3-0.1-0.4
		c-0.1-0.1-0.2-0.2-0.3-0.3c-0.1-0.1-0.3-0.1-0.4-0.2c0.1-0.2,0.1-0.2,0.2-0.2c0.1,0,0.4,0,0.6,0c0.3-0.1,0.4-0.1,0.4-0.1h1.2
		c0,0,0.2,0,0.4,0c0.3,0,0.5,0.1,0.6,0.1c0.1,0,0.5,0,1.4-0.1c0.2,0,0.7,0,1.6,0c0.1,0.1,0.1,0.1,0.1,0.2c0,0,0,0.1,0,0.2
		c0,0.1,0,0.1,0,0.2c0,0.2-0.1,0.7-0.1,1.5c0,0-0.1,0.1-0.2,0.1c0,0-0.1-0.3-0.3-0.7c-0.1-0.3-0.3-0.5-0.5-0.5c-0.1,0-0.2,0-0.3-0.1
		c-0.1,0-0.3,0-0.3,0c-0.2,0.1-0.7,0.1-1.3,0c-0.4,0-0.7,0-0.9,0c-0.1,0-0.1,0.1-0.1,0.2c0.1,0.5,0.1,1,0,1.5v0.4v0.4
		c0,0.2,0,0.3,0,0.4c0,0,0,0.1,0.1,0.2h2.6c0.1,0,0.2-0.1,0.2-0.1c0.1,0,0.2-0.1,0.3-0.2c0-0.1,0.1-0.3,0.3-0.5
		c0.1,0,0.2,0.1,0.3,0.2c0,0.3,0,0.6-0.1,1c0,0.3,0,0.7-0.1,1.2c0,0.1-0.1,0.1-0.3,0.1c-0.1-0.1-0.2-0.3-0.3-0.4
		c-0.3-0.2-0.5-0.3-0.8-0.3h-1c-0.1,0-0.2,0-0.4,0c-0.2,0-0.3,0-0.4,0c-0.2,0-0.4,0.1-0.5,0.2c-0.1,0.2-0.1,0.3-0.1,0.4
		c0,0.1,0,0.2,0,0.5c0,0.2,0,0.4,0,0.5c0,0.1,0,0.2-0.1,0.4c0,0.2-0.1,0.3-0.1,0.4c0,0.1,0,0.1,0,0.2c0,0.1,0.2,0.2,0.4,0.4
		c0.2,0.2,0.4,0.2,0.6,0.3c0,0,0,0,0.1,0c0,0,0.1,0,0.1,0h1.2c0.3,0,0.5,0,0.7-0.1c0.2-0.1,0.5-0.3,0.7-0.5c0.3-0.3,0.4-0.6,0.4-0.8
		C-597.7,1196.5-597.5,1196.5-597.3,1196.6"/>
	<path id="path4956" class="st0" d="M-581.4,1194.1c-0.1,0.2-0.2,0.3-0.4,0.2c0-0.1,0.1-0.2,0.2-0.3
		C-581.5,1194-581.5,1194.1-581.4,1194.1L-581.4,1194.1z M-580.7,1183.5c-0.3-0.1-0.5-0.3-0.5-0.5v-1.8c0-0.1,0-0.1-0.1-0.2
		c0-0.1-0.1-0.1-0.1-0.2c-0.1-0.7-0.4-1.6-1.1-2.5c-0.7-1-1.5-1.6-2.3-1.8c-0.1-0.1-0.3-0.1-0.5-0.2c-1.2-0.2-1.8-0.4-2-0.4h-1.5
		c-0.6,0-1.1,0.1-1.6,0.2c0,0-0.2,0.2-0.4,0.4c0.1,0.7,0.1,1.1,0.1,1.1c0,0,0,0-0.1,0.1c0,0.1-0.1,0.1-0.1,0.2v2.4
		c0,0.1,0,0.2-0.1,0.3c-0.1,0.1-0.1,0.3-0.1,0.3c0.1,0.3,0.1,0.5,0.2,0.8c0.1,0.3,0.1,0.6,0,0.8c-0.1,0.5-0.2,1.3,0,2.2
		c0-0.2,0,0.1,0,0.8v2.5c0,0.2,0,0.3-0.1,0.6c0,0.2,0,0.3,0,0.4c0,0.2,0.1,0.4,0.2,0.6c0.3,0.1,0.7,0.2,1.2,0.3l3.4,0.1
		c0.4-0.2,0.9-0.4,1.6-0.6c0.3-0.1,0.6-0.2,1.1-0.5c0.7-0.6,1.2-1.2,1.5-1.8c0.2-0.4,0.4-1,0.6-1.8c0-0.2,0.1-0.6,0.1-1
		c0-0.2,0.1-0.4,0.1-0.7C-581,1183.5-580.9,1183.5-580.7,1183.5L-580.7,1183.5z M-565.4,1202.2c0,0.1,0,0.3,0,0.4
		c0,0.2-0.1,0.3-0.2,0.4c-0.1,0.1-0.4,0.2-0.9,0.3c-0.1,0-0.5,0.2-0.9,0.4c-0.4,0.2-0.7,0.3-1,0.3c-0.1,0-0.2,0-0.2,0
		c-0.1,0-0.2-0.1-0.3-0.2c-0.2-0.1-0.3-0.2-0.3-0.3c-0.1-0.1-0.4,0-0.7,0.1c0.3,0.1,0.6,0.3,0.9,0.4c-0.9,0.1-1.4,0.1-1.8-0.1
		c0-0.1,0-0.3,0.1-0.5c0,0-0.1,0-0.1-0.1c0.1,0-0.4,0-1.5,0c0,0,0,0-0.1,0.1c0.1,0,0.2,0.1,0.4,0.1c-0.5,0.1-0.8,0.1-1,0
		c-0.2-0.2-0.3-0.3-0.5-0.5c-0.3-0.3-0.5-0.4-0.7-0.3c-0.3-0.3-1-0.9-2.1-1.8c-0.9-0.7-1.5-1.2-1.5-1.4c-0.1-0.1-0.3-0.2-0.5-0.3
		c-0.2-0.2-0.4-0.5-0.7-0.9c-0.1-0.1-0.2-0.2-0.3-0.2c-0.2-0.5-0.6-0.9-1.2-1.2c0.1-0.1,0-0.3,0-0.4c-0.3-0.3-0.6-0.6-1-0.9
		c-0.4-0.4-0.7-0.8-0.7-1.1c0-0.1,0-0.1,0-0.2c0,0,0.2,0,0.4,0c0.1,0,0.2,0.1,0.3,0.2c0.2-0.1,0.4-0.2,0.6-0.3
		c0.2,0.2,0.5,0.4,0.9,0.7c0.2-0.1,0.2-0.2,0.2-0.3c0-0.3-0.2-0.4-0.5-0.4c0,0,0-0.1,0.1-0.1c0-0.1,0-0.1,0.1-0.1
		c0.1,0,0.2,0.1,0.4,0.2c0.1,0,0.2-0.1,0.2-0.1c0-0.1,0-0.3-0.1-0.5c-0.3-0.2-0.6-0.3-1-0.2c-0.2,0-0.5,0.1-0.9,0.2
		c-0.4,0.1-0.7,0.2-0.8,0.2c-0.2,0-0.4,0-0.6-0.1c-0.4-0.2-0.7-0.5-0.9-1.1c-0.1,0-0.1-0.1-0.2-0.2c0,0,0-0.1,0-0.1
		c0-0.2-0.3-0.5-0.5-0.7c-0.2-0.1-0.4-0.2-0.6-0.2c-0.7,0-1.5,0-2.7,0h-2.7c-0.1,0-0.2,0.1-0.2,0.2c0,0.7-0.1,1,0,1.1l0,2.2
		c0,1.3,0.1,2.1,0.1,2.4c0,0,0,0.1-0.1,0.3c0,0.1-0.1,0.2,0,0.3c0.1,0.1,0.2,0.4,0.4,0.7c0.1,0.8,0.2,1.4,0.1,1.6
		c-0.2,0.1-0.4,0.3-0.8,0.6c0,0.1,0,0.1,0.1,0.1c0.6,0,1.7,0.1,3.1,0.4c0.1,0,0.3,0.1,0.5,0.2c0,0.1,0,0.3-0.1,0.7
		c-0.2,0.1-0.3,0.2-0.5,0.2c-0.3,0-1.3-0.1-2.8-0.3l-3.7-0.1c-0.2,0.1-0.6,0.1-1.1,0.2c-0.8,0-1.8,0.1-2.9,0.1c0-0.2,0-0.5,0-0.8
		c0.4-0.1,0.9-0.3,1.6-0.5c0.4-0.1,0.8-0.4,1.2-0.9c0.4-0.5,0.6-0.9,0.7-1.3c0.1-1.6,0.2-2.5,0.2-2.6v-12.4c0,0,0-0.2-0.1-0.4
		c0-0.2-0.1-0.4-0.1-0.5c0-0.1,0-0.5,0.1-1.1c0.1-0.6,0.1-1,0.1-1.3c0-0.1,0-0.4-0.1-0.8c-0.1-0.4-0.1-0.8-0.1-0.9
		c0-0.3-0.1-0.8-0.2-1.5c-0.1-0.2-0.2-0.4-0.3-0.7c-0.1-0.4-0.6-0.7-1.4-0.9c-0.1,0-0.3-0.1-0.5-0.2c-0.2,0-0.5,0-0.9,0
		c-0.3-0.2-0.3-0.5-0.1-0.8c0.3-0.1,0.8-0.2,1.5-0.3c1.9-0.2,2.9-0.2,3.2-0.2h2.5c0,0,0.4,0,1-0.1c0.6-0.1,0.9-0.1,1-0.1h1.4
		c0.1,0,0.2,0,0.6,0c0.4,0,0.6,0.1,0.7,0.1c0.2,0,0.5-0.1,0.9-0.1c1.2,0.2,2.5,0.4,4,0.7c0.6,0.1,1.7,0.9,3.4,2.2c0,0.1,0,0.2,0,0.4
		c-0.2,0.2-0.6,0.5-1.2,0.8c-0.6,0.3-1,0.6-1.2,0.8c0,0.1,0.2,0.2,0.4,0.3c0.2,0,0.4,0,0.6-0.1c0-0.1,0.1-0.1,0.2-0.2
		c0.3-0.1,0.6-0.1,0.7-0.1c0.1,0.2,0.2,0.4,0.4,0.6c0.2-0.1,0.3-0.2,0.3-0.4c0-0.2-0.1-0.3-0.3-0.5c0.2,0,0.3,0,0.5,0
		c0.2,0.1,0.4,0.1,0.6,0.1c0.1,0.6,0.2,1.2,0.4,1.8c0.2,0.8,0.2,1.5,0.2,2c0,0.5-0.1,0.9-0.2,1.3c-0.2,0.6-0.5,1.5-1,2.8
		c-0.3,0.5-0.9,1.3-1.7,2.3c0,0-0.6,0.5-1.6,1.3c0.3,0.6,0.8,1,1.5,1.7c0.5,0.5,0.9,1,1.2,1.4c0.3,0.5,0.6,0.8,0.8,1
		c0,0.1,0.1,0.2,0.2,0.3c0.7,0.7,1.8,1.8,3.2,3.2c0,0.1,0,0.1,0,0.2c0.5,0.3,1.2,0.8,2,1.4c0.4,0.3,0.9,0.7,1.5,1.3
		c-0.4,0.1-0.5,0.3-0.5,0.6c0,0.3,0.2,0.5,0.5,0.6c0-0.4,0.2-0.6,0.5-0.7c0,0,0.1,0,0.1,0c0,0,0.3,0.1,0.9,0.3
		c0.8,0.3,1.6,0.6,2.4,0.9C-566.5,1202.2-566,1202.3-565.4,1202.2"/>
	<path id="path4958" class="st0" d="M-564.7,1180.1c0,0.2-0.1,0.4-0.2,0.7l-1,0.2c-0.4,0.1-0.7,0.3-0.8,0.6
		c-0.1,0.1-0.2,0.3-0.3,0.6c0,0.1-0.2,0.8-0.5,2l-0.1,7.3c-0.1,0.3-0.2,0.5-0.2,0.5l0.2,0.4v2.7c-0.1,0.4-0.1,0.9,0,1.5
		c0.1,0.8,0.2,1.4,0.5,1.9c0.1,0.2,0.3,0.3,0.6,0.5c0.6,0.4,1.2,0.5,1.8,0.5c0,0.2-0.1,0.4-0.2,0.7h-2c0,0-0.2,0-0.6,0
		c-0.4,0-0.6,0-0.6,0c0,0-0.2,0-0.5,0c-0.3,0-0.4,0-0.5,0c0,0-0.1,0-0.3,0c-0.2,0-0.3,0-0.3,0c0,0-0.1,0-0.2,0c-0.1,0-0.2,0-0.2,0
		l-3.7,0.1c-0.3,0-0.5-0.1-0.5-0.4c0-0.3,0.1-0.4,0.2-0.5c0.4-0.1,0.7-0.1,1.1-0.2c0.4-0.1,0.7-0.3,0.8-0.5c0-0.1,0.1-0.4,0.2-0.7
		c0.2,0,0.4,0,0.8,0.1c0.1-0.5,0.2-0.8,0.2-0.9c0-0.1-0.1-0.3-0.2-0.5c0.1-0.2,0.1-0.4,0.1-0.6c0-0.1-0.2-0.3-0.3-0.6
		c-0.2-0.2-0.2-0.4-0.2-0.4c0,0.1,0.1-0.3,0.3-1.1c0-0.1,0-0.2-0.1-0.4c0.2-0.3,0.3-0.5,0.3-0.7c0,0,0-0.4-0.1-1.1
		c0-0.1,0-0.2-0.1-0.3c-0.1-0.2-0.1-0.3-0.1-0.3c0,0,0.1-0.1,0.2-0.2c0,0-0.1,0-0.1-0.2v-2.1c0,0,0-0.1,0.1-0.3
		c0.1-0.2,0.1-0.3,0.1-0.3c0,0,0-0.1,0-0.1c0-0.1,0-0.1,0-0.1c0,0,0-0.2,0-0.8c0-0.1,0-0.4,0-1v-1.4c0-0.1-0.1-0.3-0.2-0.6
		c0-0.1,0-0.4-0.1-0.7c0-0.2-0.1-0.4-0.1-0.7c-0.1-0.1-0.2-0.3-0.4-0.5c0-0.1-0.1-0.3-0.2-0.5c-0.2-0.4-0.5-0.6-0.7-0.7
		c-0.3-0.1-0.7-0.2-1.2-0.4c0-0.2,0.1-0.4,0.2-0.6h0.2c0,0,0.1,0,0.3,0c0.2,0,0.3,0,0.3,0L-564.7,1180.1"/>
	<path id="path4960" class="st0" d="M-546.7,1192.2l-0.2,0.2l-0.1-0.1l0.1-0.4C-546.7,1192.1-546.6,1192.2-546.7,1192.2
		L-546.7,1192.2z M-540.1,1178.7c-0.2,0-0.5,0.1-1,0.2c-0.4,0.1-0.8,0.4-1.1,0.8c-0.4,0.6-0.6,1.3-0.7,1.9c-0.2,1.1-0.2,2-0.2,2.6
		c0,0,0,0.6,0.1,1.5c0,1,0.1,1.5,0.1,1.5v2.8c0,0,0,0.2,0.1,0.4c0,0.2,0.1,0.4,0,0.5c-0.1,1.4-0.1,2.2-0.1,2.4c0,0.1,0,0.3,0.1,0.6
		c0,0.3,0.1,0.5,0.1,0.5v5.4c0,0.1,0,0.1,0,0.1c0,0,0,0,0,0c-0.8,0.1-1.2,0.2-1.1,0.2c-0.5,0-0.8-0.1-0.9-0.2c-0.8-0.8-2-2.1-3.6-4
		c-0.3-0.4-0.7-0.9-1.3-1.6c-0.5-0.5-1.2-1.2-2-2.1c-0.2-0.4-0.6-0.9-1.1-1.6c-1.1-1.3-2.6-3.2-4.5-5.7c-0.3-0.2-0.6-0.5-1.1-1
		c0-0.1,0-0.2-0.1-0.4c-0.1-0.2-0.4-0.6-0.7-1c-0.2,0.1-0.4,0.3-0.4,0.5c0,0,0.1,0.6,0.2,1.8c0,0.1,0,0.2,0,0.3
		c0,0.1-0.1,0.2-0.1,0.3c0,0.5,0,1.2,0.1,2.2c0,1,0.1,1.5,0.1,1.4v2.5c0,0.1,0,0.7,0,1.8c0,1.1,0,1.7,0,1.8c0,2.5,0.9,3.8,2.6,3.9
		c0,0,0.1,0.1,0.1,0.2c0.1,0.1,0.1,0.2,0.1,0.2c0,0.2,0,0.4-0.1,0.5h-6.2c0,0-0.3,0-0.6,0.1c-0.4,0.1-0.6,0.1-0.7,0.1h-0.3
		c-0.1-0.1-0.2-0.2-0.2-0.2c0-0.4,0.1-0.7,0.4-0.8c0.3-0.1,0.8-0.3,1.3-0.5c0.6-0.3,0.9-0.8,1-1.5c0.3-1.7,0.4-2.8,0.2-3.1
		c-0.1-0.2-0.1-0.3,0-0.4l0.1-0.2l-0.1-0.2c0-0.1,0-0.4,0-0.7c0-0.3,0-0.6,0-0.7c0-0.2,0-0.4-0.1-0.8c-0.1-0.4-0.1-0.7-0.1-0.8
		c0,0.2,0-0.2,0.1-1.1c0,0-0.1-0.2-0.2-0.4l0.1-0.1c0-0.1,0.1-0.2,0.1-0.4c0,0,0-0.1,0-0.1c-0.2-1.3-0.2-2.2-0.2-2.7v-2.4
		c-0.1-1.4-0.1-2.2-0.1-2.5c0,0,0-0.1,0.1-0.2c0-0.1,0.1-0.2,0-0.3c-0.9-0.9-2-1.4-3.4-1.3l-0.1-0.1v-0.6c0.1-0.2,0.4-0.2,1-0.2
		c0.1,0,0.5,0,1.4,0.1c0.9,0.1,1.4,0.1,1.4,0.1c0,0,0.5,0,1.3-0.1c0.8-0.1,1.3-0.1,1.3-0.1c0.3,0,0.4,0,0.5,0c0.2,0.1,0.5,0.4,1,1.2
		c1,1.4,2.4,3.4,4.4,6.2c0.4,0.5,1,1.3,1.8,2.3c-0.1,1,0,1.6,0.4,1.6c0,0,0.1,0,0.3-0.1c0.1-0.1,0.2-0.1,0.3-0.1
		c0.2,0,0.4,0.2,0.6,0.7c0.1,0.2,0.3,0.4,0.4,0.7c0.9,0.7,1.4,1.2,1.6,1.6c0,0.2,0.1,0.5,0.2,0.9c0.1,0.1,0.2,0.2,0.2,0.2
		c0.1,0,0.1,0,0.2-0.1c0.1,0,0.1-0.1,0.1-0.1c0.3,0.3,0.7,0.8,1.3,1.5c0.2-0.1,0.3-0.2,0.3-0.3c0-0.1,0-0.2-0.1-0.3
		c0-0.1-0.1-0.2-0.1-0.3v-1.9c0-0.1,0-0.1,0-0.3c0-0.1,0-0.3,0-0.4c0-0.2,0.1-0.5,0.1-1c-0.1-0.3-0.1-0.8-0.2-1.5c0-0.1,0-0.3,0-0.5
		c0-0.3,0.1-0.4,0.1-0.4c0,0,0-0.1-0.1-0.3c0-0.1-0.1-0.2-0.1-0.3c0-0.2,0-0.5,0-0.9c0-0.5,0-0.8,0-0.9c0-0.1,0-0.2-0.1-0.3
		c-0.1-0.1-0.1-0.2-0.1-0.3l0.1-0.5c0-0.1,0-0.3-0.1-0.5c-0.1-0.3-0.1-0.5-0.1-0.6c0,0,0-0.2,0.1-0.3c0-0.2,0.1-0.3,0.1-0.4
		c-0.1-0.5-0.2-1.2-0.4-2.1c-0.2-0.6-0.8-1-2-1.2c0-0.2,0-0.4-0.1-0.6c0.1-0.1,0.5-0.2,1.3-0.2l3.2,0.2c-0.1,0,0.5,0,1.6-0.1
		c0.7,0,1.2,0,1.6,0.1L-540.1,1178.7"/>
	<path id="path4962" class="st0" d="M-521.1,1178.1c0,0.1,0,0.2,0,0.3c0,0.3-0.1,0.7-0.2,1.4c-0.1,0.7-0.2,1.2-0.2,1.5
		c0,0.2,0,0.3,0,0.5c-0.1,0.2-0.1,0.5-0.2,0.9c0.1,0.5,0.2,0.7,0.2,0.6c0,0.1-0.1,0.2-0.2,0.3c0,0.1,0,0.5,0.1,1
		c-0.3,0.3-0.6,0.4-0.8,0.4c-0.1,0-0.2-0.1-0.3-0.2c0.1-0.7,0.1-1.2,0.1-1.3c0-0.2-0.1-0.5-0.2-0.8c-0.2-0.5-0.7-1.1-1.4-1.8
		c-0.3-0.2-0.9-0.6-1.8-1c-0.1,0-0.5-0.1-1.2-0.3c-0.4-0.1-1.1-0.1-1.9-0.1c-2.4,0-4.3,0.6-5.7,1.9c-0.2,0.1-0.4,0.3-0.7,0.6
		c-1.1,1.5-1.7,2.9-1.8,4.3c-0.1,0.6-0.1,1.6-0.1,2.9v1.2c0-0.1,0.1,0.3,0.3,1c0,0.4,0.1,0.9,0.2,1.5c0.1,0.1,0.2,0.2,0.4,0.5
		c0,0.2,0.1,0.4,0.1,0.6c0.2,0.2,0.4,0.6,0.8,1c0,0.1,0.1,0.4,0.3,0.6c0.5,1,1.4,1.8,2.5,2.5c0.5,0.3,1,0.5,1.5,0.6
		c2.4,0.6,4,0.8,4.6,0.8c0.3,0,0.6,0,0.9-0.1c0.1,0,0.4-0.1,0.6-0.2l0.1-0.7c0-0.2-0.1-0.3-0.2-0.3c-0.2-0.1-0.4-0.2-0.4-0.3
		c-0.1-0.2-0.1-0.6,0-1.1c0,0,0-1,0-2.9c-0.1-0.7-0.2-1.3-0.3-1.7c-0.1-0.1-0.2-0.2-0.3-0.3c-0.2-0.6-0.7-1.1-1.3-1.2
		c-0.3-0.1-0.9-0.1-1.8-0.1c0,0-0.1-0.1-0.2-0.1v-0.5c0.3-0.1,0.8-0.1,1.5-0.1c0.1,0,0.5,0,1.3,0.1c0.8,0.1,1.2,0.1,1.3,0.1
		c0.1,0,0.2,0,0.3-0.1c0.1-0.1,0.3-0.1,0.3-0.1c0.7-0.1,1.2-0.1,1.2-0.1c1.7,0,2.5,0,2.2,0v0.8c0,0-0.1,0.2-0.2,0.4
		c-0.1,0.3-0.2,0.4-0.2,0.5c-0.2,0.8-0.3,1.7-0.4,2.6c0,1.1-0.1,1.9-0.1,2.3c0,0.8,0.1,2,0.3,3.5c-0.6,0.3-2,0.7-4.4,1.2
		c-0.2,0-0.5,0-0.9,0c-0.6,0.1-0.9,0.2-1.2,0.2c-0.1,0-0.2,0-0.3-0.1c-0.1,0-0.2-0.1-0.3-0.1c-1.3-0.1-2.3-0.2-3.1-0.3
		c-0.3-0.1-0.8-0.3-1.4-0.5c-1.2-0.2-2.6-1-4.1-2.3c-1.6-1.4-2.5-2.7-2.9-4c-0.1-0.3-0.3-0.7-0.4-1.3c-0.1-0.2-0.2-0.5-0.4-0.8
		c-0.1-0.6-0.2-1.1-0.2-1.5c0,0,0-0.2,0.1-0.7c0.1-0.4,0.1-0.7,0-0.9c0-0.2-0.1-0.4-0.1-0.6c0-0.4,0.1-1,0.3-1.8
		c0.2-1,0.4-1.6,0.4-1.9c1.2-2.2,1.9-3.2,2.2-3.2c0,0,0.1,0,0.1,0.1c0,0,0.1,0.1,0.1,0.1c0.2,0,0.4,0,0.5-0.1c0-0.1,0.1-0.3,0.3-0.6
		c1.1-1.3,1.8-1.9,2.1-1.9c0.1,0,0.1,0,0.1,0c0,0,0.1,0,0.1,0c0,0,0.2-0.1,0.4-0.2c0.2-0.2,0.4-0.2,0.4-0.2c0,0,0.1,0,0.2,0.1
		c0.1,0,0.2,0.1,0.2,0.1c0.1,0,0.6-0.1,1.6-0.4c1-0.3,1.6-0.4,1.6-0.4h4.7c0.1,0,0.6,0.1,1.7,0.2s1.6,0.2,1.7,0.2h0.7L-521.1,1178.1
		"/>
	<path id="path4964" class="st0" d="M-500.8,1202.8c0,0.6-0.5,1.9-1.3,4c-0.1,0.2-0.3,0.5-0.8,1c-1.2,1.4-2.2,2.2-3.1,2.5
		c-0.2,0.1-0.5,0.3-1,0.5c-1.4,0.5-3.1,0.7-5.2,0.7c-0.6,0-1.1,0-1.6-0.1c0-0.2,0-0.5,0.2-0.9c-0.5-0.5-1-0.7-1.4-0.7
		c-0.3,0-0.6,0.1-0.9,0.4c0.2,0.2,0.5,0.2,0.7,0.2c0,0.2-0.1,0.4-0.3,0.5c-0.2,0.1-0.4,0.1-0.7,0c-0.1,0-1.1-0.4-2.9-1
		c-0.3-0.1-0.5-0.1-0.8-0.2c-0.4-0.1-0.7-0.3-0.9-0.5l-0.2-1.3c-0.1-0.6-0.3-1.5-0.4-2.8c0-0.8,0-2.1,0-3.7c0-1.1,0.2-1.6,0.8-1.6
		c0.1,0,0.2,0,0.3,0.1c0,1,0.3,2.5,0.6,4.5c0.1,0.2,0.3,0.5,0.5,0.9c0.4,0.9,1.1,1.6,2.1,2.1c0.5,0.3,1.3,0.6,2.5,0.9
		c0.2,0.1,0.8,0.2,1.7,0.4c0.6,0.2,1.5,0.3,2.5,0.3c0.3-0.4,0.8-0.7,1.5-0.8c0.9-0.2,1.5-0.3,1.8-0.5c0.2-0.1,0.4-0.4,0.7-0.9
		c0.2-0.4,0.4-0.8,0.5-1.3c0.1-0.4,0.3-0.9,0.5-1.7c0-0.1,0-0.3-0.1-0.6c0-0.6-0.2-1.3-0.5-2.1c-0.4-0.8-0.8-1.4-1.4-1.7
		c-0.1-0.2-0.3-0.5-0.6-0.8c-0.7-0.4-1.8-1-3.1-1.7c-0.3-0.2-0.7-0.5-1.3-0.9c-2-0.8-3.7-1.9-5.1-3.2c-0.6-0.5-1.1-1.2-1.6-2.1
		c0-0.1-0.1-0.3-0.1-0.5c-0.1-0.1-0.2-0.2-0.4-0.4c0,0,0-0.1-0.1-0.2c0-0.3,0-0.6,0-0.9c0-0.4-0.2-0.7-0.4-0.9c0-0.4,0-1.1,0.1-2
		c-0.1-0.1-0.1-0.1-0.2-0.2c0-0.1,0-0.3,0-0.6c0.1-0.1,0.2-0.2,0.3-0.3c0,0,0.2-0.6,0.5-1.8c0.2-0.8,0.7-1.4,1.4-2
		c0.1,0.1,0.2,0.2,0.3,0.4c0.1-0.3,0.2-0.7,0.5-1.2c1.2-1.1,2.4-2,3.6-2.7c0.4,0,0.9,0,1.6-0.1c0.7-0.1,1.7-0.2,3.1-0.3
		c0.1,0,0.1,0.1,0.3,0.2c0.7,0.1,1.8,0.2,3.1,0.3c1,0,1.6,0,1.8,0c1-0.1,1.4-0.2,1.2-0.2c0.3,0,0.5,0.1,0.6,0.2c0,0-0.2,3.1-0.5,9.3
		c-0.2,0.1-0.5,0.1-1,0.1c-0.2-0.6-0.2-1.1-0.2-1.4c0-1-0.2-2-0.8-2.9c-0.6-1-1.3-1.7-2.3-2.1c-0.8-0.3-1.7-0.4-2.8-0.4
		c-1.2,0-2.1,0.2-2.8,0.5c-0.1,0-0.3,0-0.5,0c-0.6,0.3-1.2,0.9-1.8,1.6c-0.5,0.8-0.8,1.4-0.8,2c0,0.1,0,0.3,0.1,0.7
		c0.1,0.3,0.1,0.6,0.2,0.8c0,1.1,0.6,2.2,1.8,3.3c0.5,0.5,1.4,1.1,2.6,1.8c0.6,0.2,1.4,0.6,2.5,1.1c2.9,1.6,5,3.1,6.1,4.7
		c0.1,0.2,0.3,0.6,0.6,1.2c0.2,0.4,0.4,1.1,0.6,2C-500.9,1200.9-500.8,1201.9-500.8,1202.8"/>
	<path id="path4966" class="st0" d="M-681.2,1170.1c0,0.1,0,0.3-0.1,0.4v1.1c0,0,0,0-0.1,0c0,0-0.1,0-0.1,0c0,0,0-0.2-0.1-0.6
		c0-0.2-0.1-0.4-0.3-0.5c-0.1-0.1-0.2,0-0.5,0c-0.1,0-0.3,0-0.6,0.1c-0.1,0-0.1,0.1-0.2,0.2c-0.1,0.2-0.1,0.5,0,0.9s0,0.9,0,1.6
		c0,0,0,0.2,0.1,0.7c0,0.2,0,0.4,0,0.7c0,0.2,0.1,0.4,0.2,0.7c0,0.2,0.1,0.3,0.3,0.3c0.1,0,0.3,0.1,0.4,0.1c0,0,0,0.1-0.1,0.2h-2.7
		c0,0,0,0,0-0.1c0,0,0,0,0-0.1c0.1,0,0.2-0.1,0.4-0.1c0.2-0.1,0.3-0.2,0.4-0.3c0,0,0-0.2,0.1-0.4c0-0.4,0-0.9,0-1.4v-1.7h0.1
		c0,0,0,0,0,0c0-0.1-0.1-0.3-0.2-0.5c0,0,0-0.3-0.1-0.7h-0.9c-0.1,0-0.2,0.1-0.3,0.2c-0.1,0.1-0.2,0.2-0.2,0.2
		c-0.1,0.3-0.1,0.5-0.2,0.6c0,0.1-0.1,0.1-0.2,0.1c0,0,0-0.1,0-0.1c0-0.1,0-0.1,0-0.1c0-0.1,0.1-0.3,0.1-0.6c0-0.3,0.1-0.6,0.1-0.7
		l0.2-0.2c-0.1,0,0.2,0,0.9,0c0.2,0,0.5,0,0.9,0c0.4,0,0.6,0,0.6,0h0.8c0,0,0.1,0,0.3,0c0.2,0,0.4-0.1,0.6-0.1c0.1,0,0.1,0,0.2,0
		C-681.3,1170-681.2,1170-681.2,1170.1"/>
	<path id="path4968" class="st0" d="M-674,1170.1C-674,1170.1-674,1170.1-674,1170.1c-0.2,0.1-0.3,0.2-0.4,0.2
		c-0.1,0-0.1,0.1-0.2,0.2c-0.1,0.1-0.1,0.2-0.1,0.3c0,0.3,0,0.4,0,0.3c0,0.1-0.1,0.2-0.1,0.3c0,0,0,0.2,0.1,0.5c0,0.1,0,0.2,0,0.4
		c0,0.2,0,0.4,0,0.7c0,0.3,0,0.4,0,0.4v0.7c0,0.7,0.1,1.2,0.3,1.5c0,0.1,0.1,0.1,0.2,0.2c0.1,0.1,0.2,0.1,0.3,0.1
		c0,0-0.1,0.1-0.1,0.1h-2.3c0,0,0,0,0-0.1c0,0,0-0.1,0-0.1c0.1,0,0.2-0.1,0.3-0.1c0.1,0,0.2-0.2,0.3-0.4c0.1-0.2,0.1-0.4,0.1-0.5
		v-0.7c0,0,0-0.2,0-0.4c0-0.2,0-0.3,0-0.4c0-0.1,0-0.2-0.1-0.4c-0.2,0.1-0.4,0.2-0.7,0.3c-0.2,0-0.3,0-0.4,0c-0.2,0-0.3,0-0.3,0
		h-1.2c-0.1,0-0.2,0.1-0.3,0.2c0,0.1-0.1,0.2,0,0.3c0,0.1,0.1,0.1,0.1,0.2c0,0,0,0,0,0.3c0,0,0,0.3,0,0.8c0,0.5,0.2,0.8,0.5,0.9
		c0,0,0.1,0,0.2,0.1c-0.1,0.1-0.2,0.2-0.4,0.2c0,0-0.1,0-0.1,0c-0.1,0-0.1,0-0.1,0l-1.9,0c0-0.1,0.1-0.1,0.2-0.2
		c0.2-0.1,0.3-0.2,0.4-0.3c0.1-0.1,0.1-0.3,0.1-0.6c0-0.3,0-0.6,0-0.8c0,0,0-0.1-0.1-0.1c0-0.2,0-0.6,0-1.1c0,0,0-0.1,0.1-0.2
		c0-0.1,0-0.1,0-0.2c0-0.1-0.1-0.1-0.1-0.3c0,0,0-0.1,0-0.3c0-0.1,0-0.1,0-0.2c0-0.1,0-0.2,0-0.2v-0.8c0-0.1-0.1-0.2-0.2-0.4
		c-0.1-0.1-0.3-0.2-0.4-0.3c0,0,0-0.1,0.1-0.2c0.1,0,0.3,0,0.5,0c0.2,0,0.4,0,0.4,0h0.9c0,0,0.1,0,0.1,0c0,0,0.1,0,0.1,0
		c0.1,0,0.2,0.1,0.3,0.2c-0.1,0.1-0.2,0.1-0.3,0.2c-0.1,0.1-0.2,0.2-0.3,0.2c-0.1,0.1-0.2,0.4-0.2,0.8v1c0,0,0,0,0,0.1
		c0,0,0,0,0,0.1c0.2,0.1,0.3,0.1,0.4,0.1h1.9c0.1,0,0.2,0,0.3,0.1c0,0,0,0,0.1,0.1c0.1,0,0.1,0,0.2,0c0,0,0,0,0.1,0
		c0.1-0.1,0.2-0.3,0.2-0.4c0-0.1,0-0.2-0.1-0.4c0-0.2-0.1-0.3,0-0.3c0-0.1,0-0.2,0-0.3c0-0.2,0-0.3,0-0.4c0-0.3-0.3-0.6-0.7-0.8
		c0.1-0.1,0.1-0.1,0.1-0.1h0.7c0,0,0.1,0,0.4,0c0.3,0,0.5,0,0.6,0C-674.5,1170-674.3,1170-674,1170.1"/>
	<path id="path4970" class="st0" d="M-668.4,1174.5c0,0.2,0,0.4-0.1,0.7c0,0.1-0.1,0.2-0.1,0.4c0,0.1,0,0.2-0.1,0.3
		c0,0-0.1,0.1-0.1,0.2c-0.1,0.1-0.2,0.2-0.2,0.2h-1.2c0,0-0.2,0-0.4,0c-0.3,0-0.4,0-0.4,0h-0.7c0,0-0.1,0-0.3,0c-0.2,0-0.3,0-0.3,0
		h-0.7l-0.1-0.1c0,0,0.2-0.1,0.4-0.3c0.2-0.1,0.3-0.2,0.3-0.4v-1.5c0-0.2,0-0.6,0.1-1c0-0.1,0-0.3,0-0.5c-0.1,0-0.1-0.1-0.1-0.2
		c0,0,0-0.1,0.1-0.4c0,0,0-0.1,0-0.1c0-0.1-0.1-0.1-0.1-0.1c0-0.1,0-0.2,0-0.3c0-0.2,0-0.3,0-0.3c0-0.1,0-0.2-0.1-0.3
		c0-0.1-0.1-0.2-0.2-0.2c-0.1,0-0.2-0.1-0.3-0.1c0-0.1,0.1-0.2,0.1-0.2c0.1,0,0.2,0,0.4,0c0.2,0,0.3-0.1,0.3-0.1h0.9
		c0,0,0.1,0,0.3,0c0.2,0,0.3,0,0.4,0c0,0,0.4,0,1-0.1c0.1,0,0.5,0,1.1,0c0.1,0,0.1,0.1,0.1,0.1c0,0,0,0.1,0,0.1c0,0.1,0,0.1,0,0.1
		c0,0.1,0,0.5-0.1,1.1c0,0-0.1,0-0.1,0.1c0,0-0.1-0.2-0.2-0.5c-0.1-0.2-0.2-0.3-0.4-0.3c-0.1,0-0.1,0-0.2,0c-0.1,0-0.2,0-0.2,0
		c-0.1,0-0.4,0-0.9,0c-0.3,0-0.5,0-0.6,0c0,0-0.1,0-0.1,0.1c0.1,0.4,0.1,0.7,0,1c0,0,0,0.1,0,0.2c0,0,0,0.1,0,0.3c0,0.1,0,0.2,0,0.3
		c0,0,0,0.1,0.1,0.1h1.8c0.1,0,0.1,0,0.2-0.1c0.1,0,0.2-0.1,0.2-0.1c0-0.1,0.1-0.2,0.2-0.3c0.1,0,0.2,0,0.2,0.1c0,0.2,0,0.4,0,0.7
		c0,0.2,0,0.5-0.1,0.8c0,0.1-0.1,0.1-0.2,0.1c0-0.1-0.1-0.2-0.2-0.3c-0.2-0.1-0.4-0.2-0.5-0.2h-0.7c0,0-0.1,0-0.2,0
		c-0.1,0-0.2,0-0.3,0c-0.2,0-0.3,0-0.3,0.2c-0.1,0.1-0.1,0.2-0.1,0.3c0,0.1,0,0.2,0,0.3c0,0.2,0,0.3,0,0.4c0,0,0,0.1,0,0.3
		s0,0.2,0,0.3c0,0.1,0,0.1,0,0.2c0,0.1,0.1,0.2,0.3,0.3c0.2,0.1,0.3,0.2,0.4,0.2c0,0,0,0,0,0c0,0,0.1,0,0.1,0h0.8
		c0.2,0,0.3,0,0.5-0.1c0.2-0.1,0.3-0.2,0.5-0.4c0.2-0.2,0.3-0.4,0.3-0.6C-668.6,1174.5-668.5,1174.5-668.4,1174.5"/>
</g>
</svg>
